<svg width="448" height="448" viewBox="0 0 448 448" fill="none" xmlns="http://www.w3.org/2000/svg">
<path d="M400 256.5H400.5V256V64C400.5 55.0519 392.95 47.5 384 47.5H64.02C54.9061 47.5 47.52 54.922 47.5195 64.9L47.5 384C47.5 389.975 50.5271 393.894 52.3365 395.654C54.1467 397.514 58.056 400.5 64 400.5H256H256.5V400V312C256.5 281.376 281.376 256.5 312 256.5H400ZM303.5 399.2V399.788L304.081 399.693C313.98 398.077 323.177 393.53 330.454 386.254L386.293 330.404C393.545 323.157 398.09 313.993 399.723 304.081L399.819 303.5H399.23H312C307.318 303.5 303.5 307.318 303.5 312V399.2ZM64.01 0.5H384C418.924 0.5 447.5 29.0761 447.5 64V296.1C447.5 321.459 437.459 344.836 419.512 363.641C419.511 363.642 419.51 363.643 419.508 363.645L363.637 419.526C345.72 437.433 321.427 447.5 296.1 447.5H64C28.9309 447.5 0.498015 419.029 0.5 383.1L0.5065 64C0.508484 28.9262 28.9361 0.5 64.01 0.5Z" fill="#3299E3" stroke="black"/>
</svg>